<svg xmlns="http://www.w3.org/2000/svg" xmlns:xlink="http://www.w3.org/1999/xlink" width="2000" zoomAndPan="magnify" viewBox="0 0 1500 1499.999933" height="2000" preserveAspectRatio="xMidYMid meet" version="1.0"><defs><clipPath id="76ff57fc10"><path d="M 270.875 211.164062 L 720.875 211.164062 L 720.875 661.164062 L 270.875 661.164062 Z M 270.875 211.164062 " clip-rule="nonzero"/></clipPath><clipPath id="df28ca2403"><path d="M 341.375 211.164062 L 650.375 211.164062 C 689.308594 211.164062 720.875 242.730469 720.875 281.664062 L 720.875 590.664062 C 720.875 629.601562 689.308594 661.164062 650.375 661.164062 L 341.375 661.164062 C 302.4375 661.164062 270.875 629.601562 270.875 590.664062 L 270.875 281.664062 C 270.875 242.730469 302.4375 211.164062 341.375 211.164062 Z M 341.375 211.164062 " clip-rule="nonzero"/></clipPath><clipPath id="b8a76287ec"><path d="M 0.875 0.164062 L 450.875 0.164062 L 450.875 450.164062 L 0.875 450.164062 Z M 0.875 0.164062 " clip-rule="nonzero"/></clipPath><clipPath id="add39b9242"><path d="M 71.375 0.164062 L 380.375 0.164062 C 419.308594 0.164062 450.875 31.730469 450.875 70.664062 L 450.875 379.664062 C 450.875 418.601562 419.308594 450.164062 380.375 450.164062 L 71.375 450.164062 C 32.4375 450.164062 0.875 418.601562 0.875 379.664062 L 0.875 70.664062 C 0.875 31.730469 32.4375 0.164062 71.375 0.164062 Z M 71.375 0.164062 " clip-rule="nonzero"/></clipPath><clipPath id="b618a714c3"><rect x="0" width="451" y="0" height="451"/></clipPath><clipPath id="256b2608c9"><path d="M 270.875 735.632812 L 720.875 735.632812 L 720.875 1289 L 270.875 1289 Z M 270.875 735.632812 " clip-rule="nonzero"/></clipPath><clipPath id="16570b9797"><path d="M 341.375 735.632812 L 650.375 735.632812 C 689.308594 735.632812 720.875 767.195312 720.875 806.132812 L 720.875 1218.335938 C 720.875 1257.269531 689.308594 1288.835938 650.375 1288.835938 L 341.375 1288.835938 C 302.4375 1288.835938 270.875 1257.269531 270.875 1218.335938 L 270.875 806.132812 C 270.875 767.195312 302.4375 735.632812 341.375 735.632812 Z M 341.375 735.632812 " clip-rule="nonzero"/></clipPath><clipPath id="d8e23bd0f7"><path d="M 0.875 0.632812 L 450.875 0.632812 L 450.875 554 L 0.875 554 Z M 0.875 0.632812 " clip-rule="nonzero"/></clipPath><clipPath id="ee0bd76ebb"><path d="M 71.375 0.632812 L 380.375 0.632812 C 419.308594 0.632812 450.875 32.195312 450.875 71.132812 L 450.875 483.335938 C 450.875 522.269531 419.308594 553.835938 380.375 553.835938 L 71.375 553.835938 C 32.4375 553.835938 0.875 522.269531 0.875 483.335938 L 0.875 71.132812 C 0.875 32.195312 32.4375 0.632812 71.375 0.632812 Z M 71.375 0.632812 " clip-rule="nonzero"/></clipPath><clipPath id="040a78df15"><rect x="0" width="451" y="0" height="554"/></clipPath><clipPath id="204e10df9e"><path d="M 779.125 211.164062 L 1229.125 211.164062 L 1229.125 764.875 L 779.125 764.875 Z M 779.125 211.164062 " clip-rule="nonzero"/></clipPath><clipPath id="728e8a8a3c"><path d="M 849.625 211.164062 L 1158.625 211.164062 C 1197.5625 211.164062 1229.125 242.730469 1229.125 281.664062 L 1229.125 693.867188 C 1229.125 732.804688 1197.5625 764.367188 1158.625 764.367188 L 849.625 764.367188 C 810.691406 764.367188 779.125 732.804688 779.125 693.867188 L 779.125 281.664062 C 779.125 242.730469 810.691406 211.164062 849.625 211.164062 Z M 849.625 211.164062 " clip-rule="nonzero"/></clipPath><clipPath id="d37986bb28"><path d="M 0.125 0.164062 L 450.125 0.164062 L 450.125 553.398438 L 0.125 553.398438 Z M 0.125 0.164062 " clip-rule="nonzero"/></clipPath><clipPath id="2a042c104f"><path d="M 70.625 0.164062 L 379.625 0.164062 C 418.5625 0.164062 450.125 31.730469 450.125 70.664062 L 450.125 482.867188 C 450.125 521.804688 418.5625 553.367188 379.625 553.367188 L 70.625 553.367188 C 31.691406 553.367188 0.125 521.804688 0.125 482.867188 L 0.125 70.664062 C 0.125 31.730469 31.691406 0.164062 70.625 0.164062 Z M 70.625 0.164062 " clip-rule="nonzero"/></clipPath><clipPath id="ffead99ae0"><rect x="0" width="451" y="0" height="554"/></clipPath><clipPath id="3c29ff2efb"><path d="M 779.125 838.835938 L 1229.125 838.835938 L 1229.125 1288.835938 L 779.125 1288.835938 Z M 779.125 838.835938 " clip-rule="nonzero"/></clipPath><clipPath id="f3f253f3a9"><path d="M 849.625 838.835938 L 1158.625 838.835938 C 1197.5625 838.835938 1229.125 870.398438 1229.125 909.335938 L 1229.125 1218.335938 C 1229.125 1257.269531 1197.5625 1288.835938 1158.625 1288.835938 L 849.625 1288.835938 C 810.691406 1288.835938 779.125 1257.269531 779.125 1218.335938 L 779.125 909.335938 C 779.125 870.398438 810.691406 838.835938 849.625 838.835938 Z M 849.625 838.835938 " clip-rule="nonzero"/></clipPath><clipPath id="4fd926d7e5"><path d="M 0.125 0.835938 L 450.125 0.835938 L 450.125 450.835938 L 0.125 450.835938 Z M 0.125 0.835938 " clip-rule="nonzero"/></clipPath><clipPath id="2372044ddd"><path d="M 70.625 0.835938 L 379.625 0.835938 C 418.5625 0.835938 450.125 32.398438 450.125 71.335938 L 450.125 380.335938 C 450.125 419.269531 418.5625 450.835938 379.625 450.835938 L 70.625 450.835938 C 31.691406 450.835938 0.125 419.269531 0.125 380.335938 L 0.125 71.335938 C 0.125 32.398438 31.691406 0.835938 70.625 0.835938 Z M 70.625 0.835938 " clip-rule="nonzero"/></clipPath><clipPath id="dbfbe953a4"><rect x="0" width="451" y="0" height="451"/></clipPath></defs><g clip-path="url(#76ff57fc10)"><g clip-path="url(#df28ca2403)"><g transform="matrix(1, 0, 0, 1, 270, 211)"><g clip-path="url(#b618a714c3)"><g clip-path="url(#b8a76287ec)"><g clip-path="url(#add39b9242)"><path fill="#000000" d="M 0.875 0.164062 L 450.875 0.164062 L 450.875 450.164062 L 0.875 450.164062 Z M 0.875 0.164062 " fill-opacity="1" fill-rule="nonzero"/></g></g></g></g></g></g><g clip-path="url(#256b2608c9)"><g clip-path="url(#16570b9797)"><g transform="matrix(1, 0, 0, 1, 270, 735)"><g clip-path="url(#040a78df15)"><g clip-path="url(#d8e23bd0f7)"><g clip-path="url(#ee0bd76ebb)"><path fill="#000000" d="M 0.875 0.632812 L 450.875 0.632812 L 450.875 554.34375 L 0.875 554.34375 Z M 0.875 0.632812 " fill-opacity="1" fill-rule="nonzero"/></g></g></g></g></g></g><g clip-path="url(#204e10df9e)"><g clip-path="url(#728e8a8a3c)"><g transform="matrix(1, 0, 0, 1, 779, 211)"><g clip-path="url(#ffead99ae0)"><g clip-path="url(#d37986bb28)"><g clip-path="url(#2a042c104f)"><path fill="#000000" d="M 0.125 0.164062 L 450.125 0.164062 L 450.125 553.875 L 0.125 553.875 Z M 0.125 0.164062 " fill-opacity="1" fill-rule="nonzero"/></g></g></g></g></g></g><g clip-path="url(#3c29ff2efb)"><g clip-path="url(#f3f253f3a9)"><g transform="matrix(1, 0, 0, 1, 779, 838)"><g clip-path="url(#dbfbe953a4)"><g clip-path="url(#4fd926d7e5)"><g clip-path="url(#2372044ddd)"><path fill="#000000" d="M 0.125 0.835938 L 450.125 0.835938 L 450.125 450.835938 L 0.125 450.835938 Z M 0.125 0.835938 " fill-opacity="1" fill-rule="nonzero"/></g></g></g></g></g></g></svg>