<svg xmlns="http://www.w3.org/2000/svg" xmlns:xlink="http://www.w3.org/1999/xlink" width="2000" zoomAndPan="magnify" viewBox="0 0 1500 1499.999933" height="2000" preserveAspectRatio="xMidYMid meet" version="1.0"><defs><clipPath id="368ee01367"><path d="M 270.875 211.164062 L 720.875 211.164062 L 720.875 661.164062 L 270.875 661.164062 Z M 270.875 211.164062 " clip-rule="nonzero"/></clipPath><clipPath id="7dcd7ee956"><path d="M 341.375 211.164062 L 650.375 211.164062 C 689.308594 211.164062 720.875 242.730469 720.875 281.664062 L 720.875 590.664062 C 720.875 629.601562 689.308594 661.164062 650.375 661.164062 L 341.375 661.164062 C 302.4375 661.164062 270.875 629.601562 270.875 590.664062 L 270.875 281.664062 C 270.875 242.730469 302.4375 211.164062 341.375 211.164062 Z M 341.375 211.164062 " clip-rule="nonzero"/></clipPath><clipPath id="bff673e4e5"><path d="M 0.875 0.164062 L 450.875 0.164062 L 450.875 450.164062 L 0.875 450.164062 Z M 0.875 0.164062 " clip-rule="nonzero"/></clipPath><clipPath id="6c9b55b609"><path d="M 71.375 0.164062 L 380.375 0.164062 C 419.308594 0.164062 450.875 31.730469 450.875 70.664062 L 450.875 379.664062 C 450.875 418.601562 419.308594 450.164062 380.375 450.164062 L 71.375 450.164062 C 32.4375 450.164062 0.875 418.601562 0.875 379.664062 L 0.875 70.664062 C 0.875 31.730469 32.4375 0.164062 71.375 0.164062 Z M 71.375 0.164062 " clip-rule="nonzero"/></clipPath><clipPath id="9609d73fbf"><rect x="0" width="451" y="0" height="451"/></clipPath><clipPath id="07c7c14816"><path d="M 270.875 735.632812 L 720.875 735.632812 L 720.875 1289 L 270.875 1289 Z M 270.875 735.632812 " clip-rule="nonzero"/></clipPath><clipPath id="6578016651"><path d="M 341.375 735.632812 L 650.375 735.632812 C 689.308594 735.632812 720.875 767.195312 720.875 806.132812 L 720.875 1218.335938 C 720.875 1257.269531 689.308594 1288.835938 650.375 1288.835938 L 341.375 1288.835938 C 302.4375 1288.835938 270.875 1257.269531 270.875 1218.335938 L 270.875 806.132812 C 270.875 767.195312 302.4375 735.632812 341.375 735.632812 Z M 341.375 735.632812 " clip-rule="nonzero"/></clipPath><clipPath id="28af465ba6"><path d="M 0.875 0.632812 L 450.875 0.632812 L 450.875 554 L 0.875 554 Z M 0.875 0.632812 " clip-rule="nonzero"/></clipPath><clipPath id="3fa9b8093a"><path d="M 71.375 0.632812 L 380.375 0.632812 C 419.308594 0.632812 450.875 32.195312 450.875 71.132812 L 450.875 483.335938 C 450.875 522.269531 419.308594 553.835938 380.375 553.835938 L 71.375 553.835938 C 32.4375 553.835938 0.875 522.269531 0.875 483.335938 L 0.875 71.132812 C 0.875 32.195312 32.4375 0.632812 71.375 0.632812 Z M 71.375 0.632812 " clip-rule="nonzero"/></clipPath><clipPath id="ae652d5855"><rect x="0" width="451" y="0" height="554"/></clipPath><clipPath id="f190541e66"><path d="M 779.125 211.164062 L 1229.125 211.164062 L 1229.125 764.875 L 779.125 764.875 Z M 779.125 211.164062 " clip-rule="nonzero"/></clipPath><clipPath id="864eaeec24"><path d="M 849.625 211.164062 L 1158.625 211.164062 C 1197.5625 211.164062 1229.125 242.730469 1229.125 281.664062 L 1229.125 693.867188 C 1229.125 732.804688 1197.5625 764.367188 1158.625 764.367188 L 849.625 764.367188 C 810.691406 764.367188 779.125 732.804688 779.125 693.867188 L 779.125 281.664062 C 779.125 242.730469 810.691406 211.164062 849.625 211.164062 Z M 849.625 211.164062 " clip-rule="nonzero"/></clipPath><clipPath id="b0f6f3d6ad"><path d="M 0.125 0.164062 L 450.125 0.164062 L 450.125 553.398438 L 0.125 553.398438 Z M 0.125 0.164062 " clip-rule="nonzero"/></clipPath><clipPath id="d1d207f409"><path d="M 70.625 0.164062 L 379.625 0.164062 C 418.5625 0.164062 450.125 31.730469 450.125 70.664062 L 450.125 482.867188 C 450.125 521.804688 418.5625 553.367188 379.625 553.367188 L 70.625 553.367188 C 31.691406 553.367188 0.125 521.804688 0.125 482.867188 L 0.125 70.664062 C 0.125 31.730469 31.691406 0.164062 70.625 0.164062 Z M 70.625 0.164062 " clip-rule="nonzero"/></clipPath><clipPath id="de265c4f80"><rect x="0" width="451" y="0" height="554"/></clipPath><clipPath id="e9e5cb590f"><path d="M 779.125 838.835938 L 1229.125 838.835938 L 1229.125 1288.835938 L 779.125 1288.835938 Z M 779.125 838.835938 " clip-rule="nonzero"/></clipPath><clipPath id="86e2631767"><path d="M 849.625 838.835938 L 1158.625 838.835938 C 1197.5625 838.835938 1229.125 870.398438 1229.125 909.335938 L 1229.125 1218.335938 C 1229.125 1257.269531 1197.5625 1288.835938 1158.625 1288.835938 L 849.625 1288.835938 C 810.691406 1288.835938 779.125 1257.269531 779.125 1218.335938 L 779.125 909.335938 C 779.125 870.398438 810.691406 838.835938 849.625 838.835938 Z M 849.625 838.835938 " clip-rule="nonzero"/></clipPath><clipPath id="a9c3ec8a73"><path d="M 0.125 0.835938 L 450.125 0.835938 L 450.125 450.835938 L 0.125 450.835938 Z M 0.125 0.835938 " clip-rule="nonzero"/></clipPath><clipPath id="51a88d3cca"><path d="M 70.625 0.835938 L 379.625 0.835938 C 418.5625 0.835938 450.125 32.398438 450.125 71.335938 L 450.125 380.335938 C 450.125 419.269531 418.5625 450.835938 379.625 450.835938 L 70.625 450.835938 C 31.691406 450.835938 0.125 419.269531 0.125 380.335938 L 0.125 71.335938 C 0.125 32.398438 31.691406 0.835938 70.625 0.835938 Z M 70.625 0.835938 " clip-rule="nonzero"/></clipPath><clipPath id="17abf1f26e"><rect x="0" width="451" y="0" height="451"/></clipPath></defs><g clip-path="url(#368ee01367)"><g clip-path="url(#7dcd7ee956)"><g transform="matrix(1, 0, 0, 1, 270, 211)"><g clip-path="url(#9609d73fbf)"><g clip-path="url(#bff673e4e5)"><g clip-path="url(#6c9b55b609)"><path fill="#ffffff" d="M 0.875 0.164062 L 450.875 0.164062 L 450.875 450.164062 L 0.875 450.164062 Z M 0.875 0.164062 " fill-opacity="1" fill-rule="nonzero"/></g></g></g></g></g></g><g clip-path="url(#07c7c14816)"><g clip-path="url(#6578016651)"><g transform="matrix(1, 0, 0, 1, 270, 735)"><g clip-path="url(#ae652d5855)"><g clip-path="url(#28af465ba6)"><g clip-path="url(#3fa9b8093a)"><path fill="#ffffff" d="M 0.875 0.632812 L 450.875 0.632812 L 450.875 554.34375 L 0.875 554.34375 Z M 0.875 0.632812 " fill-opacity="1" fill-rule="nonzero"/></g></g></g></g></g></g><g clip-path="url(#f190541e66)"><g clip-path="url(#864eaeec24)"><g transform="matrix(1, 0, 0, 1, 779, 211)"><g clip-path="url(#de265c4f80)"><g clip-path="url(#b0f6f3d6ad)"><g clip-path="url(#d1d207f409)"><path fill="#ffffff" d="M 0.125 0.164062 L 450.125 0.164062 L 450.125 553.875 L 0.125 553.875 Z M 0.125 0.164062 " fill-opacity="1" fill-rule="nonzero"/></g></g></g></g></g></g><g clip-path="url(#e9e5cb590f)"><g clip-path="url(#86e2631767)"><g transform="matrix(1, 0, 0, 1, 779, 838)"><g clip-path="url(#17abf1f26e)"><g clip-path="url(#a9c3ec8a73)"><g clip-path="url(#51a88d3cca)"><path fill="#ffffff" d="M 0.125 0.835938 L 450.125 0.835938 L 450.125 450.835938 L 0.125 450.835938 Z M 0.125 0.835938 " fill-opacity="1" fill-rule="nonzero"/></g></g></g></g></g></g></svg>