<svg id="logo" xmlns="http://www.w3.org/2000/svg" xmlns:xlink="http://www.w3.org/1999/xlink" viewBox="0 0 332.37 332.368">
  <defs>
    <style>
      .cls-1 {
        fill: url(#radial-gradient);
      }

      .cls-2 {
        fill: #002030;
      }

      .cls-3, .cls-5 {
        fill: #fff;
      }

      .cls-4 {
        fill: #f1f2f2;
      }

      .cls-5 {
        fill-rule: evenodd;
      }
    </style>
    <radialGradient id="radial-gradient" cx="155.071" cy="143.345" r="149.819" gradientUnits="userSpaceOnUse">
      <stop offset="0" stop-color="#5b8bc8"/>
      <stop offset="1" stop-color="#002030"/>
    </radialGradient>
  </defs>
  <path id="Path_1" data-name="Path 1" class="cls-1" d="M313.9,176.89A137.006,137.006,0,1,1,176.9,39.879,137.01,137.01,0,0,1,313.9,176.89Z" transform="translate(-10.71 -10.708)"/>
  <g id="Group_1" data-name="Group 1">
    <path id="Path_2" data-name="Path 2" class="cls-2" d="M375,101.487V66.541H340.06A144.369,144.369,0,0,1,375,101.487Z" transform="translate(-91.308 -17.867)"/>
    <path id="Path_3" data-name="Path 3" class="cls-2" d="M218.121,22.575a144.521,144.521,0,0,1,24.7,2.121L218.121,0l-24.7,24.7A144.394,144.394,0,0,1,218.121,22.575Z" transform="translate(-51.935)"/>
    <path id="Path_4" data-name="Path 4" class="cls-2" d="M101.484,66.541H66.54v34.946A144.383,144.383,0,0,1,101.484,66.541Z" transform="translate(-17.866 -17.867)"/>
    <path id="Path_5" data-name="Path 5" class="cls-2" d="M445.306,218.117l-24.7-24.7a144.9,144.9,0,0,1,0,49.4Z" transform="translate(-112.936 -51.934)"/>
    <path id="Path_6" data-name="Path 6" class="cls-2" d="M340.061,375.006h34.944V340.057A144.541,144.541,0,0,1,340.061,375.006Z" transform="translate(-91.308 -91.307)"/>
    <path id="Path_7" data-name="Path 7" class="cls-2" d="M218.121,422.725a144.4,144.4,0,0,1-24.7-2.126l24.7,24.7,24.7-24.7A144.456,144.456,0,0,1,218.121,422.725Z" transform="translate(-51.935 -112.933)"/>
    <path id="Path_8" data-name="Path 8" class="cls-2" d="M66.54,340.057v34.949h34.944A144.526,144.526,0,0,1,66.54,340.057Z" transform="translate(-17.866 -91.307)"/>
    <path id="Path_9" data-name="Path 9" class="cls-2" d="M22.575,218.118A144.341,144.341,0,0,1,24.7,193.424L0,218.121l24.7,24.7A144.505,144.505,0,0,1,22.575,218.118Z" transform="translate(0 -51.935)"/>
  </g>
  <g id="Group_2" data-name="Group 2" transform="translate(113.083 81.974)">
    <path id="Path_10" data-name="Path 10" class="cls-3" d="M154.592,202.693H169V113.883h-14.4v-1.819H183.8l24.018,69.855h.266L232.1,112.064H260.8v1.819h-14.4v88.809h14.4v1.819H218.987v-1.819H233.4V114.66h-.257l-31.039,89.981-30.9-89.071h-.261v87.124H185.36v1.819H154.592v-1.82Z" transform="translate(-154.592 -112.064)"/>
  </g>
  <g id="Group_5" data-name="Group 5" transform="translate(37.107 37.497)">
    <g id="Group_3" data-name="Group 3" transform="translate(5.892)">
      <path id="Path_11" data-name="Path 11" class="cls-4" d="M60.839,179.815a2.846,2.846,0,0,1-1.729-1.48,2.971,2.971,0,1,1,5.477-.421,2.829,2.829,0,0,1-1.482,1.729A2.884,2.884,0,0,1,60.839,179.815Z" transform="translate(-58.784 -84.218)"/>
      <path id="Path_12" data-name="Path 12" class="cls-4" d="M74.8,158.258,62,151.936l4.478-9.062,2.307,1.141-3.056,6.179,2.78,1.375,2.467-4.983,2.161,1.068-2.462,4.983,3.206,1.583,3.1-6.27,2.337,1.156Z" transform="translate(-59.647 -75.86)"/>
      <path id="Path_13" data-name="Path 13" class="cls-4" d="M83.747,144.667l-8.921-5.692,1.523-2.387,1.422.91a3.789,3.789,0,0,1-.528-1.9,3.438,3.438,0,0,1,.578-1.837,3.237,3.237,0,0,1,2.222-1.656,4.54,4.54,0,0,1,3.006.917l5.774,3.684-1.648,2.584-5.6-3.578a2.5,2.5,0,0,0-1.437-.485,1.244,1.244,0,0,0-1,.646,1.641,1.641,0,0,0-.186,1.505,2.7,2.7,0,0,0,1.171,1.367L85.38,142.1Z" transform="translate(-63.091 -72.961)"/>
      <path id="Path_14" data-name="Path 14" class="cls-4" d="M87.72,113.668l11.212,8.83-1.784,2.267-1.287-.99a4.043,4.043,0,0,1,.337,1.859,2.935,2.935,0,0,1-.643,1.6,3.671,3.671,0,0,1-3.071,1.5,6.46,6.46,0,0,1-3.875-1.593,6.607,6.607,0,0,1-2.483-3.423,3.611,3.611,0,0,1,.673-3.325,3.255,3.255,0,0,1,1.221-.972,3.99,3.99,0,0,1,1.644-.312l-3.84-3.025Zm4.151,7.169a2.3,2.3,0,0,0-1.518-.588,1.723,1.723,0,0,0-1.271.734,1.491,1.491,0,0,0-.166,1.613,6.9,6.9,0,0,0,3.935,3.109,1.541,1.541,0,0,0,1.543-.606,1.6,1.6,0,0,0,.307-1.38,2.34,2.34,0,0,0-.914-1.372Z" transform="translate(-66.044 -68.018)"/>
      <path id="Path_15" data-name="Path 15" class="cls-4" d="M94.592,107.594l-1.723-1.656,1.5-1.558,1.719,1.661Zm6.6-4.039,7.614,7.34-1.97,2.045-1.221-1.171a3.708,3.708,0,0,1,.161,1.973,3.444,3.444,0,0,1-.93,1.681,3.244,3.244,0,0,1-2.518,1.2,4.6,4.6,0,0,1-2.764-1.505l-4.935-4.755,2.131-2.211,4.795,4.611a2.422,2.422,0,0,0,1.3.749,1.246,1.246,0,0,0,1.106-.429,1.654,1.654,0,0,0,.482-1.42,2.727,2.727,0,0,0-.89-1.563l-4.494-4.33Zm-4.186,1.533-1.723-1.661,1.5-1.555,1.724,1.661Z" transform="translate(-67.936 -64.85)"/>
      <path id="Path_16" data-name="Path 16" class="cls-4" d="M112.279,105.823l1.723-1.94a1.837,1.837,0,0,0,1.392.294,3.327,3.327,0,0,0,1.558-.807,2.468,2.468,0,0,0,.8-1.105.959.959,0,0,0-.166-.963c-.331-.384-1.005-.274-2.03.334-.3.184-.543.322-.709.42a6.874,6.874,0,0,1-3.081,1.083,2.586,2.586,0,0,1-2.045-1,3.015,3.015,0,0,1-.693-2.7,5.2,5.2,0,0,1,1.849-2.842,5.366,5.366,0,0,1,2.619-1.322,3.908,3.908,0,0,1,2.578.492l-1.6,1.965a1.874,1.874,0,0,0-1.181-.181,2.725,2.725,0,0,0-1.206.651,2.079,2.079,0,0,0-.718.975.9.9,0,0,0,.2.859q.489.562,2.222-.462c.4-.233.724-.42.95-.548a5.95,5.95,0,0,1,2.835-.942,2.6,2.6,0,0,1,1.945,1.013,3.074,3.074,0,0,1,.663,2.862,6.079,6.079,0,0,1-2.131,3.115,5.632,5.632,0,0,1-2.975,1.432A3.848,3.848,0,0,1,112.279,105.823Z" transform="translate(-72.254 -63.067)"/>
      <path id="Path_17" data-name="Path 17" class="cls-4" d="M123.957,94.757l-3-4.1-1.382,1.006L118.364,90l1.448-1.056-1.6-2.478,2.166-1.8,1.844,2.523L124,85.886l1.216,1.663-1.779,1.294,2.8,3.84a2.248,2.248,0,0,0,1,.907,1.22,1.22,0,0,0,1.01-.314,4.391,4.391,0,0,0,.432-.354c.136-.136.282-.279.407-.432l1.366,1.849a9.891,9.891,0,0,1-.753.761,8.123,8.123,0,0,1-.734.616,3.505,3.505,0,0,1-2.669.857A4.094,4.094,0,0,1,123.957,94.757Z" transform="translate(-74.741 -60.228)"/>
      <path id="Path_18" data-name="Path 18" class="cls-4" d="M134.548,92.122,128.869,83.2l2.306-1.465,1.2,1.882a3.711,3.711,0,0,1-.106-2.181,2.726,2.726,0,0,1,1.226-1.505,2.62,2.62,0,0,1,.342-.2.784.784,0,0,1,.126-.058l1.532,2.405c-.015.007-.025.018-.045.03-.236.119-.407.211-.507.277A2.315,2.315,0,0,0,133.788,84a3.054,3.054,0,0,0,.558,2.1l2.784,4.375Z" transform="translate(-77.602 -58.89)"/>
      <path id="Path_19" data-name="Path 19" class="cls-4" d="M136.987,75.727l-1.151-2.043,2.758-1.548,1.146,2.043Zm5.84,10.406-5.177-9.22,2.754-1.555,5.177,9.227Z" transform="translate(-79.472 -56.866)"/>
      <path id="Path_20" data-name="Path 20" class="cls-4" d="M150.759,86.452l-1.015-2.131c.3-.089.558-.176.794-.261s.453-.181.653-.271a2.088,2.088,0,0,0,1.071-.947,1.922,1.922,0,0,0-.031-1.38l-8.1-7.788,3.006-1.434,5.066,5.4-.97-7.363,2.181-1.037,1.241,12.34a4.572,4.572,0,0,1-.362,2.583,3.984,3.984,0,0,1-1.884,1.633c-.222.1-.467.208-.739.319S151.1,86.333,150.759,86.452Z" transform="translate(-81.701 -56.089)"/>
      <path id="Path_21" data-name="Path 21" class="cls-4" d="M171.7,70.713a4.732,4.732,0,0,1-.865,3.1,5.819,5.819,0,0,1-2.8,2.013,5.321,5.321,0,0,1-4.251-.061,5.633,5.633,0,0,1,.527-10.453,4.8,4.8,0,0,1,4.046.121,6,6,0,0,1,2.724,3.435l.146.407-6.981,2.573a3.29,3.29,0,0,0,1.292,1.782,2.049,2.049,0,0,0,1.854.106,2.067,2.067,0,0,0,1.423-2.214Zm-8.016-.5,3.941-1.462a2.649,2.649,0,0,0-1.136-1.445,1.933,1.933,0,0,0-1.649-.042,1.892,1.892,0,0,0-1.186,1.1A2.809,2.809,0,0,0,163.68,70.21Z" transform="translate(-86.114 -54.93)"/>
      <path id="Path_22" data-name="Path 22" class="cls-4" d="M178.283,71.031l-3.946-13.718,3.04-.872,3.946,13.718Z" transform="translate(-89.81 -52.652)"/>
      <path id="Path_23" data-name="Path 23" class="cls-4" d="M197.473,54.354l1.889,11.526-3.287.541-1.884-11.529-3.251.533-.422-2.558,9.785-1.606.417,2.558Z" transform="translate(-94.155 -51.261)"/>
      <path id="Path_24" data-name="Path 24" class="cls-4" d="M215.842,62.394a4.7,4.7,0,0,1-1.659,2.759,5.776,5.776,0,0,1-3.226,1.194,5.327,5.327,0,0,1-4.086-1.189,5.494,5.494,0,0,1-1.84-3.887,5.39,5.39,0,0,1,5.126-6.049,4.807,4.807,0,0,1,3.87,1.194,5.986,5.986,0,0,1,1.714,4.036l.035.429-7.418.625a3.3,3.3,0,0,0,.775,2.058,2.04,2.04,0,0,0,1.759.6,2.17,2.17,0,0,0,1.3-.527,2.146,2.146,0,0,0,.663-1.229Zm-7.589-2.614,4.186-.365a2.66,2.66,0,0,0-.709-1.693,1.934,1.934,0,0,0-1.583-.48,1.871,1.871,0,0,0-1.432.748A2.84,2.84,0,0,0,208.254,59.781Z" transform="translate(-98.045 -52.318)"/>
      <path id="Path_25" data-name="Path 25" class="cls-4" d="M231.855,56.693a4.013,4.013,0,0,1,1.462-1.32A3.789,3.789,0,0,1,235.2,55a3.017,3.017,0,0,1,2.347,1,3.824,3.824,0,0,1,.714,2.663l-.3,7.28-3.02-.126.276-6.785a2.094,2.094,0,0,0-.291-1.289,1.191,1.191,0,0,0-.97-.5,1.592,1.592,0,0,0-1.337.588,2.666,2.666,0,0,0-.567,1.671l-.252,6.184-3.026-.128.277-6.742a2.176,2.176,0,0,0-.277-1.334,1.147,1.147,0,0,0-.964-.49,1.568,1.568,0,0,0-1.282.543,2.35,2.35,0,0,0-.553,1.527l-.261,6.373-3.02-.123.432-10.569,2.809.116-.065,1.6a3.966,3.966,0,0,1,1.362-1.327,3.214,3.214,0,0,1,1.739-.395,3.449,3.449,0,0,1,1.8.52A2.945,2.945,0,0,1,231.855,56.693Z" transform="translate(-102.794 -52.195)"/>
      <path id="Path_26" data-name="Path 26" class="cls-4" d="M246.567,65.537l1.462-10.471,3.131.435L249.7,65.976Zm1.648-11.816.326-2.319,3.132.437-.327,2.32Z" transform="translate(-109.204 -51.299)"/>
      <path id="Path_27" data-name="Path 27" class="cls-4" d="M252.765,67.761l.377-1.874,6.081-5.42-4.417-.9.427-2.1,8,1.633-.331,1.614L256.63,66.37l5.08,1.036-.427,2.094Z" transform="translate(-110.868 -52.928)"/>
      <path id="Path_28" data-name="Path 28" class="cls-4" d="M266.175,69.4l3.72-13.783,3.055.824-3.719,13.781Z" transform="translate(-114.469 -52.43)"/>
      <path id="Path_29" data-name="Path 29" class="cls-4" d="M273.362,71.479l3.226-10.072,3.01.965-3.226,10.073Zm3.644-11.363.709-2.229,3.015.962-.714,2.232Z" transform="translate(-116.399 -53.04)"/>
      <path id="Path_30" data-name="Path 30" class="cls-4" d="M280.466,73.845,285.778,60.6l2.845,1.141-3.065,7.636,5.352-2.734,2.7,1.078L289.266,69.8l.8,7.9-3.026-1.214-.5-5.5L284.5,72.015l-1.192,2.973Z" transform="translate(-118.306 -53.768)"/>
      <path id="Path_31" data-name="Path 31" class="cls-4" d="M310.511,70.917l2.884,1.719-4.719,7.913a3.041,3.041,0,0,0-.548,2.075,2.382,2.382,0,0,0,1.266,1.518,2.275,2.275,0,0,0,1.909.317,3.1,3.1,0,0,0,1.593-1.467l4.684-7.863,2.271,1.357-4.8,8.076a5.094,5.094,0,0,1-3.152,2.621,5.718,5.718,0,0,1-4.171-.97,7.012,7.012,0,0,1-2.166-1.917,4.514,4.514,0,0,1-.849-2.344,3.646,3.646,0,0,1,.216-1.342,9.491,9.491,0,0,1,.819-1.693Zm3.578-.173,1.222-2.053,1.859,1.106-1.226,2.053Zm2.99,1.786,1.226-2.056,1.854,1.105-1.221,2.053Z" transform="translate(-124.815 -55.941)"/>
      <path id="Path_32" data-name="Path 32" class="cls-4" d="M318.2,94.984l6.192-8.574,2.211,1.6-1.307,1.809a3.8,3.8,0,0,1,1.99-.907,2.727,2.727,0,0,1,1.854.583c.056.042.156.123.3.246a1.185,1.185,0,0,1,.106.1l-1.669,2.309a.114.114,0,0,1-.04-.028c-.206-.178-.351-.3-.452-.375a2.335,2.335,0,0,0-1.93-.47,3.091,3.091,0,0,0-1.744,1.3l-3.035,4.2Z" transform="translate(-128.438 -60.699)"/>
      <path id="Path_33" data-name="Path 33" class="cls-4" d="M340.9,98.519l-6.875,8.038-2.161-1.849,1.1-1.284a3.748,3.748,0,0,1-1.96.274,3.42,3.42,0,0,1-1.734-.824,3.256,3.256,0,0,1-1.342-2.442,4.586,4.586,0,0,1,1.337-2.854l4.458-5.2,2.337,2-4.333,5.053a2.446,2.446,0,0,0-.669,1.342,1.235,1.235,0,0,0,.493,1.073,1.656,1.656,0,0,0,1.452.4,2.686,2.686,0,0,0,1.508-.98l4.051-4.739Zm-4.428-6.355,1.558-1.816,1.639,1.407-1.553,1.814Zm2.654,2.269,1.553-1.816,1.638,1.4-1.553,1.814Z" transform="translate(-131.05 -61.756)"/>
      <path id="Path_34" data-name="Path 34" class="cls-4" d="M338.59,112.031l7.649-7.315,1.955,2.048-1.217,1.166a3.731,3.731,0,0,1,1.966-.061,3.463,3.463,0,0,1,1.649.993,3.239,3.239,0,0,1,1.085,2.548,4.563,4.563,0,0,1-1.608,2.707l-4.951,4.734L343,116.636l4.8-4.6a2.478,2.478,0,0,0,.814-1.274,1.252,1.252,0,0,0-.392-1.128,1.661,1.661,0,0,0-1.418-.538,2.67,2.67,0,0,0-1.608.819l-4.508,4.309Z" transform="translate(-133.913 -65.614)"/>
      <path id="Path_35" data-name="Path 35" class="cls-4" d="M349.4,123.064l11.006-9.087,2.015,2.437L351.412,125.5Z" transform="translate(-136.815 -68.101)"/>
      <path id="Path_36" data-name="Path 36" class="cls-4" d="M363.224,136.832a4.711,4.711,0,0,1-3.216-.033,5.786,5.786,0,0,1-2.673-2.178,5.331,5.331,0,0,1-1.04-4.124,5.627,5.627,0,0,1,10.221-2.2,4.778,4.778,0,0,1,.94,3.941,5.994,5.994,0,0,1-2.608,3.523L364.5,136l-4.3-6.076a3.3,3.3,0,0,0-1.387,1.714,2.04,2.04,0,0,0,.382,1.819,2.106,2.106,0,0,0,1.11.849,2.16,2.16,0,0,0,1.4-.05Zm-1.6-7.87,2.437,3.423a2.623,2.623,0,0,0,1.1-1.467,1.951,1.951,0,0,0-.387-1.611,1.872,1.872,0,0,0-1.377-.852A2.8,2.8,0,0,0,361.626,128.962Z" transform="translate(-138.645 -71.282)"/>
      <path id="Path_37" data-name="Path 37" class="cls-4" d="M363.406,143.623l9.111-5.382,1.392,2.352-1.925,1.138a3.738,3.738,0,0,1,2.186-.038,2.735,2.735,0,0,1,1.463,1.274c.03.058.1.176.186.35.025.056.04.1.056.131l-2.463,1.452a.15.15,0,0,0-.025-.045c-.111-.244-.2-.42-.257-.523a2.318,2.318,0,0,0-1.578-1.2,3.053,3.053,0,0,0-2.126.488l-4.458,2.636Z" transform="translate(-140.576 -74.616)"/>
      <path id="Path_38" data-name="Path 38" class="cls-4" d="M368.545,152.131l9.388-4.867,1.463,2.809L370,154.943Zm10.594-5.491,2.08-1.075,1.458,2.8-2.081,1.078Z" transform="translate(-141.956 -76.582)"/>
      <path id="Path_39" data-name="Path 39" class="cls-4" d="M385.52,167.758a2.837,2.837,0,0,1,2.271.1,2.9,2.9,0,0,1,1.543,1.683,2.987,2.987,0,0,1-1.764,3.8,2.976,2.976,0,0,1-3.734-4.043A2.9,2.9,0,0,1,385.52,167.758Z" transform="translate(-145.985 -82.49)"/>
    </g>
    <g id="Group_4" data-name="Group 4" transform="translate(0 105.339)">
      <path id="Path_40" data-name="Path 40" class="cls-4" d="M53.108,202.215l14.549,2.309-.306,1.925L52.807,204.14Zm15.464,2.314,2.222.35-.347,2.211-2.227-.35Z" transform="translate(-51.286 -197.132)"/>
      <path id="Path_41" data-name="Path 41" class="cls-4" d="M53.132,213.883l-1.618.085a6.747,6.747,0,0,1-.01-1.377,3.078,3.078,0,0,1,.477-1.483,1.723,1.723,0,0,1,.895-.669,6.46,6.46,0,0,1,2.146.012l6.1.669.146-1.322,1.4.153-.146,1.322,2.628.287.879,1.907-3.7-.407-.206,1.807-1.392-.154.2-1.807-6.2-.679a3.158,3.158,0,0,0-1.006-.015.757.757,0,0,0-.382.271,1.225,1.225,0,0,0-.2.6A5.6,5.6,0,0,0,53.132,213.883Z" transform="translate(-50.928 -199.168)"/>
      <path id="Path_42" data-name="Path 42" class="cls-4" d="M51.087,218.409l14.715.543-.065,1.809-5.277-.2a4.04,4.04,0,0,1,1.347,3.246,4.33,4.33,0,0,1-.543,2.04,2.735,2.735,0,0,1-1.337,1.2,5.96,5.96,0,0,1-2.4.287l-6.76-.254.065-1.8,6.76.251a2.814,2.814,0,0,0,2-.516,2.213,2.213,0,0,0,.679-1.638,2.979,2.979,0,0,0-.357-1.528,2.364,2.364,0,0,0-1.1-1.048,5.159,5.159,0,0,0-1.955-.377l-5.835-.214Z" transform="translate(-50.738 -201.48)"/>
      <path id="Path_43" data-name="Path 43" class="cls-4" d="M52.52,241.783a6.728,6.728,0,0,1-1.317-1.854,5.6,5.6,0,0,1-.462-1.967,3.915,3.915,0,0,1,.688-2.752,3.043,3.043,0,0,1,3.589-.8,2.942,2.942,0,0,1,1.1.869,4.3,4.3,0,0,1,.669,1.266,12.1,12.1,0,0,1,.362,1.583,16.487,16.487,0,0,0,.819,3.186c.246-.005.4-.015.473-.015a2.013,2.013,0,0,0,1.523-.608,3.063,3.063,0,0,0,.487-2.091,3.17,3.17,0,0,0-.558-1.851,2.709,2.709,0,0,0-1.633-.807l.136-1.78a4.324,4.324,0,0,1,1.874.686,3.419,3.419,0,0,1,1.171,1.531,6.9,6.9,0,0,1,.523,2.392,6.509,6.509,0,0,1-.191,2.237,2.942,2.942,0,0,1-.734,1.3,2.862,2.862,0,0,1-1.2.633,9.818,9.818,0,0,1-1.663.186l-2.4.146a26.664,26.664,0,0,0-3.176.3,4.314,4.314,0,0,0-1.246.533l-.116-1.879A3.837,3.837,0,0,1,52.52,241.783Zm4.026-.386a13.491,13.491,0,0,1-.86-2.905,6.513,6.513,0,0,0-.453-1.55,1.5,1.5,0,0,0-.628-.679,1.584,1.584,0,0,0-2.04.418,2.375,2.375,0,0,0-.392,1.631,3.708,3.708,0,0,0,.568,1.824,2.823,2.823,0,0,0,1.322,1.121,4.309,4.309,0,0,0,1.824.181Z" transform="translate(-50.728 -205.702)"/>
      <path id="Path_44" data-name="Path 44" class="cls-4" d="M52.1,250.867,66.7,249l.23,1.794-14.609,1.86Z" transform="translate(-51.096 -209.694)"/>
      <path id="Path_45" data-name="Path 45" class="cls-4" d="M55.71,264.553a6.932,6.932,0,0,1-1.563-1.669A5.772,5.772,0,0,1,53.424,261a3.85,3.85,0,0,1,.326-2.819,2.847,2.847,0,0,1,1.97-1.347,3,3,0,0,1,2.679.789,4.576,4.576,0,0,1,.824,1.167,13.572,13.572,0,0,1,.583,1.527,16.266,16.266,0,0,0,1.226,3.046c.246-.045.4-.071.462-.08a2.015,2.015,0,0,0,1.432-.809,3.01,3.01,0,0,0,.206-2.136,3.227,3.227,0,0,0-.8-1.764,2.773,2.773,0,0,0-1.724-.578l-.105-1.78a4.315,4.315,0,0,1,1.955.427A3.506,3.506,0,0,1,63.815,258a7.181,7.181,0,0,1,.835,2.3,6.517,6.517,0,0,1,.11,2.241,2.939,2.939,0,0,1-.553,1.387,2.83,2.83,0,0,1-1.1.783,9.568,9.568,0,0,1-1.623.412l-2.362.467a22.7,22.7,0,0,0-3.111.729,3.8,3.8,0,0,0-1.166.694l-.362-1.849A3.784,3.784,0,0,1,55.71,264.553Zm3.93-.925a13.279,13.279,0,0,1-1.236-2.764,6.679,6.679,0,0,0-.658-1.482,1.535,1.535,0,0,0-1.609-.669,1.537,1.537,0,0,0-1.075.769,2.4,2.4,0,0,0-.166,1.663,3.7,3.7,0,0,0,.809,1.739,2.827,2.827,0,0,0,1.452.935,4.64,4.64,0,0,0,1.835-.061Z" transform="translate(-51.421 -211.63)"/>
      <path id="Path_46" data-name="Path 46" class="cls-4" d="M59.214,276.728l-1.468.674a6.465,6.465,0,0,1-.512-1.276,3.065,3.065,0,0,1-.1-1.558,1.7,1.7,0,0,1,.588-.945,6.316,6.316,0,0,1,2.005-.783l5.921-1.6-.342-1.287,1.357-.367.347,1.282,2.548-.693,1.518,1.457-3.6.97.477,1.759-1.357.367-.478-1.759-6.025,1.639a3.184,3.184,0,0,0-.93.351.719.719,0,0,0-.256.392,1.183,1.183,0,0,0,.035.623A5.626,5.626,0,0,0,59.214,276.728Z" transform="translate(-52.431 -215.221)"/>
      <path id="Path_47" data-name="Path 47" class="cls-4" d="M61.7,289.1l13.781-5.187.688,1.824-13.781,5.192Zm14.58-5.639,2.106-.783.789,2.09-2.11.794Z" transform="translate(-53.673 -218.736)"/>
      <path id="Path_48" data-name="Path 48" class="cls-4" d="M64.5,296.59l13.378-6.151.764,1.638-4.81,2.211a4.043,4.043,0,0,1,2.674,2.281,4.384,4.384,0,0,1,.437,2.076,2.731,2.731,0,0,1-.653,1.669,5.772,5.772,0,0,1-2.011,1.342l-6.142,2.835-.759-1.648,6.142-2.829a2.769,2.769,0,0,0,1.553-1.353,2.176,2.176,0,0,0-.14-1.769,2.829,2.829,0,0,0-1.01-1.206,2.367,2.367,0,0,0-1.452-.438,5.242,5.242,0,0,0-1.91.543l-5.3,2.437Z" transform="translate(-54.426 -220.82)"/>
      <path id="Path_49" data-name="Path 49" class="cls-4" d="M71.68,311.834,81,306.653l.794,1.422-1.412.784a4.458,4.458,0,0,1,1.865.276,2,2,0,0,1,.879.839,3.551,3.551,0,0,1,.4,1.9l-1.769.271a2.608,2.608,0,0,0-.306-1.347,1.717,1.717,0,0,0-.824-.753,1.909,1.909,0,0,0-1.192-.111,7.043,7.043,0,0,0-1.99.764l-4.885,2.713Z" transform="translate(-56.354 -225.174)"/>
      <path id="Path_50" data-name="Path 50" class="cls-4" d="M81.936,326.063a6.542,6.542,0,0,1-2.075-.955,5.366,5.366,0,0,1-1.387-1.468,3.853,3.853,0,0,1-.774-2.724,2.819,2.819,0,0,1,1.312-2,2.978,2.978,0,0,1,1.392-.492,3.058,3.058,0,0,1,1.382.211,4.323,4.323,0,0,1,1.206.759,12.822,12.822,0,0,1,1.121,1.191A16.509,16.509,0,0,0,86.4,322.93c.206-.136.342-.216.4-.256a1.97,1.97,0,0,0,1.015-1.287,2.957,2.957,0,0,0-.623-2.05,3.2,3.2,0,0,0-1.407-1.326,2.687,2.687,0,0,0-1.819.121l-.769-1.609a4.455,4.455,0,0,1,1.965-.351,3.435,3.435,0,0,1,1.78.753,7.1,7.1,0,0,1,1.648,1.8,6.413,6.413,0,0,1,.955,2.035,2.891,2.891,0,0,1,.015,1.493,2.819,2.819,0,0,1-.714,1.146,9.982,9.982,0,0,1-1.342.995l-2.011,1.326a24.639,24.639,0,0,0-2.6,1.859,4.137,4.137,0,0,0-.819,1.086l-1.036-1.578A3.747,3.747,0,0,1,81.936,326.063Zm3.287-2.353a13.079,13.079,0,0,1-2.2-2.086,7.146,7.146,0,0,0-1.175-1.115,1.575,1.575,0,0,0-.879-.277,1.557,1.557,0,0,0-.86.271,1.529,1.529,0,0,0-.7,1.116,2.38,2.38,0,0,0,.482,1.6,3.623,3.623,0,0,0,1.407,1.3,2.782,2.782,0,0,0,1.7.317,4.415,4.415,0,0,0,1.674-.758Z" transform="translate(-57.961 -227.727)"/>
      <path id="Path_51" data-name="Path 51" class="cls-4" d="M94.093,337.605l.93,1.533a4.6,4.6,0,0,1-3.181.628,4.376,4.376,0,0,1-2.654-1.648,4.587,4.587,0,0,1-1.086-3.644,5.84,5.84,0,0,1,2.372-3.6,7.383,7.383,0,0,1,2.724-1.442,4,4,0,0,1,2.6.146,5.17,5.17,0,0,1,2.1,1.587,4.4,4.4,0,0,1,1.086,2.764,4.037,4.037,0,0,1-1.061,2.669l-1.312-1.206a2.9,2.9,0,0,0,.709-1.7,2.3,2.3,0,0,0-.538-1.543,2.806,2.806,0,0,0-2.151-1.12,4.631,4.631,0,0,0-2.96,1.265,4.785,4.785,0,0,0-1.92,2.6,2.67,2.67,0,0,0,.583,2.287,2.532,2.532,0,0,0,1.618.985A3.327,3.327,0,0,0,94.093,337.605Z" transform="translate(-60.751 -231.249)"/>
      <path id="Path_52" data-name="Path 52" class="cls-4" d="M101.816,350.1a6.731,6.731,0,0,1-2.211-.563,5.716,5.716,0,0,1-1.639-1.191,3.9,3.9,0,0,1-1.251-2.543,2.874,2.874,0,0,1,.925-2.207,3.013,3.013,0,0,1,2.679-.778,4.4,4.4,0,0,1,1.326.527,12.291,12.291,0,0,1,1.312.97,16.987,16.987,0,0,0,2.683,1.9c.187-.171.3-.282.352-.322a2.026,2.026,0,0,0,.764-1.448,2.994,2.994,0,0,0-.985-1.909,3.149,3.149,0,0,0-1.633-1.045,2.739,2.739,0,0,0-1.759.442l-1.05-1.437a4.46,4.46,0,0,1,1.87-.7,3.475,3.475,0,0,1,1.885.411,7.068,7.068,0,0,1,1.95,1.478,6.6,6.6,0,0,1,1.306,1.824,2.9,2.9,0,0,1,.282,1.468,2.839,2.839,0,0,1-.492,1.262,10.179,10.179,0,0,1-1.141,1.216l-1.739,1.679a26.426,26.426,0,0,0-2.216,2.282,4.07,4.07,0,0,0-.6,1.222l-1.307-1.352A3.513,3.513,0,0,1,101.816,350.1Zm2.809-2.914a12.874,12.874,0,0,1-2.543-1.649,6.743,6.743,0,0,0-1.352-.884,1.54,1.54,0,0,0-.915-.11,1.589,1.589,0,0,0-.8.412,1.554,1.554,0,0,0-.488,1.232,2.385,2.385,0,0,0,.759,1.492,3.805,3.805,0,0,0,1.623,1.025,2.817,2.817,0,0,0,1.729-.01,4.351,4.351,0,0,0,1.5-1.045Z" transform="translate(-63.076 -234.068)"/>
      <path id="Path_53" data-name="Path 53" class="cls-4" d="M111.832,357.841l-.869,1.372a7.344,7.344,0,0,1-1.131-.8,3.081,3.081,0,0,1-.919-1.257,1.7,1.7,0,0,1-.026-1.115,6.342,6.342,0,0,1,1.266-1.734l4.1-4.559-.98-.895.94-1.045.985.889,1.769-1.966,2.056.392-2.493,2.775,1.357,1.221-.94,1.04-1.352-1.216-4.181,4.638a3.274,3.274,0,0,0-.588.8.711.711,0,0,0,0,.468,1.2,1.2,0,0,0,.366.513A5.978,5.978,0,0,0,111.832,357.841Z" transform="translate(-66.322 -235.936)"/>
      <path id="Path_54" data-name="Path 54" class="cls-4" d="M123.459,363.086l1.6.9a4.1,4.1,0,0,0-.528,1.849,3.3,3.3,0,0,0,.573,1.779,5.677,5.677,0,0,0,1.614,1.644,5.536,5.536,0,0,0,1.814.844,2.735,2.735,0,0,0,1.558-.036,2.1,2.1,0,0,0,1.061-.8,1.958,1.958,0,0,0,.357-1.232,2.949,2.949,0,0,0-.6-1.457,25.886,25.886,0,0,0-1.753-2.081,13.168,13.168,0,0,1-1.819-2.372,4.071,4.071,0,0,1-.523-2.015,3.417,3.417,0,0,1,.619-1.8,3.685,3.685,0,0,1,1.7-1.357,3.927,3.927,0,0,1,2.357-.166A7.031,7.031,0,0,1,134,357.9a7.474,7.474,0,0,1,2.08,2.071,4.209,4.209,0,0,1,.709,2.372,4.476,4.476,0,0,1-.724,2.322l-1.618-.939a3.043,3.043,0,0,0,.362-2.317,4.069,4.069,0,0,0-1.709-2.051,4.123,4.123,0,0,0-2.493-.919,1.951,1.951,0,0,0-1.558.835,1.677,1.677,0,0,0-.266,1.4,7.8,7.8,0,0,0,1.824,2.523,19.732,19.732,0,0,1,2.156,2.619,4.494,4.494,0,0,1,.714,2.317,3.673,3.673,0,0,1-.683,2.071,4.08,4.08,0,0,1-1.809,1.448,4.47,4.47,0,0,1-2.513.23,6.777,6.777,0,0,1-2.664-1.131,8.242,8.242,0,0,1-2.427-2.377,4.643,4.643,0,0,1-.753-2.643A4.977,4.977,0,0,1,123.459,363.086Z" transform="translate(-70.033 -238.607)"/>
      <path id="Path_55" data-name="Path 55" class="cls-4" d="M144.157,381.279a6.921,6.921,0,0,1-2.266.131,5.543,5.543,0,0,1-1.925-.644,3.908,3.908,0,0,1-1.966-2.04,2.846,2.846,0,0,1,.217-2.382,2.9,2.9,0,0,1,1-1.086,3,3,0,0,1,1.317-.472,4.545,4.545,0,0,1,1.422.1,11.739,11.739,0,0,1,1.543.533,16.1,16.1,0,0,0,3.131.984c.126-.211.2-.347.236-.411a1.988,1.988,0,0,0,.291-1.609,3,3,0,0,0-1.518-1.517,3.219,3.219,0,0,0-1.874-.513,2.746,2.746,0,0,0-1.533.965l-1.448-1.056a4.2,4.2,0,0,1,1.573-1.226,3.472,3.472,0,0,1,1.92-.192,7.287,7.287,0,0,1,2.307.824,6.381,6.381,0,0,1,1.794,1.342,2.54,2.54,0,0,1,.628,2.658,10.8,10.8,0,0,1-.714,1.508L147.14,379.3a25.058,25.058,0,0,0-1.422,2.865,3.971,3.971,0,0,0-.211,1.342l-1.658-.9A4.022,4.022,0,0,1,144.157,381.279Zm1.8-3.633a13.1,13.1,0,0,1-2.924-.8,6.743,6.743,0,0,0-1.558-.431,1.559,1.559,0,0,0-.9.175,1.535,1.535,0,0,0-.633.633,1.558,1.558,0,0,0-.091,1.322,2.352,2.352,0,0,0,1.176,1.192,3.712,3.712,0,0,0,1.849.482,2.786,2.786,0,0,0,1.648-.528,4.4,4.4,0,0,0,1.121-1.452Z" transform="translate(-74.116 -242.397)"/>
      <path id="Path_56" data-name="Path 56" class="cls-4" d="M151.934,386.232l4.262-9.775,1.492.643-.608,1.4a3.834,3.834,0,0,1,3.82-.261,4.518,4.518,0,0,1,1.482,1.031,2.826,2.826,0,0,1,.754,1.322,3.576,3.576,0,0,1-.02,1.443,10.829,10.829,0,0,1-.613,1.654l-2.619,6.011-1.658-.714,2.593-5.956a4.705,4.705,0,0,0,.462-1.593,1.709,1.709,0,0,0-.337-1.106,2.3,2.3,0,0,0-1.025-.8,2.946,2.946,0,0,0-2.116-.131,3.623,3.623,0,0,0-1.879,2.221l-2.327,5.337Z" transform="translate(-77.902 -243.917)"/>
      <path id="Path_57" data-name="Path 57" class="cls-4" d="M174.73,393.728a6.618,6.618,0,0,1-2.206.568,5.788,5.788,0,0,1-2.005-.266,3.887,3.887,0,0,1-2.322-1.643,2.841,2.841,0,0,1-.231-2.377,2.939,2.939,0,0,1,.774-1.257,2.792,2.792,0,0,1,1.206-.7,4.385,4.385,0,0,1,1.422-.181,15.6,15.6,0,0,1,1.609.231,16.839,16.839,0,0,0,3.267.392c.075-.241.125-.382.151-.453a2,2,0,0,0-.02-1.638,3.021,3.021,0,0,0-1.775-1.206,3.085,3.085,0,0,0-1.93-.14,2.684,2.684,0,0,0-1.342,1.232l-1.6-.77a4.363,4.363,0,0,1,1.306-1.508,3.577,3.577,0,0,1,1.849-.538,7.25,7.25,0,0,1,2.423.372,6.687,6.687,0,0,1,2.02.98,2.986,2.986,0,0,1,.95,1.156,2.869,2.869,0,0,1,.166,1.336,9.871,9.871,0,0,1-.427,1.618l-.729,2.3a27.542,27.542,0,0,0-.859,3.071,4.146,4.146,0,0,0,.05,1.361l-1.8-.573A3.961,3.961,0,0,1,174.73,393.728Zm1.076-3.89a13.158,13.158,0,0,1-3.016-.246,6.933,6.933,0,0,0-1.614-.131,1.54,1.54,0,0,0-.859.347,1.436,1.436,0,0,0-.5.739,1.532,1.532,0,0,0,.156,1.312,2.349,2.349,0,0,0,1.377.95,3.685,3.685,0,0,0,1.91.126,2.822,2.822,0,0,0,1.518-.824,4.331,4.331,0,0,0,.829-1.644Z" transform="translate(-82.165 -245.799)"/>
      <path id="Path_58" data-name="Path 58" class="cls-4" d="M182.376,401.248l.166-1.7a3.847,3.847,0,0,0,.98.382,1.973,1.973,0,0,0,.985.01,1.653,1.653,0,0,0,.7-.422,8.743,8.743,0,0,0,.824-1.2c.056-.091.14-.222.257-.392l-1.649-11.313,1.9.421.834,6.508c.116.824.186,1.689.221,2.583q.58-1.146,1.252-2.211l3.568-5.583,1.764.391-6.3,9.715a20.6,20.6,0,0,1-1.508,2.151,3.431,3.431,0,0,1-1.362,1.035,2.565,2.565,0,0,1-1.543.09A3.468,3.468,0,0,1,182.376,401.248Z" transform="translate(-86.076 -246.645)"/>
      <path id="Path_59" data-name="Path 59" class="cls-4" d="M198.213,398.755l1.644-10.539,1.789.271L200,399.042Zm1.949-12.493.317-2.056,1.794.282-.327,2.05Z" transform="translate(-90.329 -245.997)"/>
      <path id="Path_60" data-name="Path 60" class="cls-4" d="M216.191,402.181l-3.578-10.835,1.9.075,2.011,6.488c.221.7.412,1.427.583,2.176.191-.553.443-1.226.769-2l2.653-6.4,1.855.081-4.5,10.484Z" transform="translate(-94.195 -247.914)"/>
      <path id="Path_61" data-name="Path 61" class="cls-4" d="M235.462,398.6l1.875.151a4.5,4.5,0,0,1-1.518,2.613,5.556,5.556,0,0,1-6.785-.216,5.628,5.628,0,0,1-1.557-3.976,5.872,5.872,0,0,1,1.186-4.242,4.714,4.714,0,0,1,3.523-1.654,4.606,4.606,0,0,1,3.563,1.287,5.822,5.822,0,0,1,1.547,4.031c0,.105.006.271.006.477l-7.946.382a4.107,4.107,0,0,0,1.125,2.643,2.961,2.961,0,0,0,2.277.835,2.8,2.8,0,0,0,1.663-.6A3.47,3.47,0,0,0,235.462,398.6Zm-6.075-2.634,5.956-.287a3.645,3.645,0,0,0-.779-1.985,2.793,2.793,0,0,0-2.287-.934,2.9,2.9,0,0,0-2.056.934A3.389,3.389,0,0,0,229.387,395.962Z" transform="translate(-98.183 -247.893)"/>
      <path id="Path_62" data-name="Path 62" class="cls-4" d="M255.791,397.59,253.3,384.845l-4.759.925-.337-1.7,11.459-2.241.331,1.7-4.78.939,2.493,12.746Z" transform="translate(-103.751 -245.36)"/>
      <path id="Path_63" data-name="Path 63" class="cls-4" d="M265.208,383.258l-.537-2,1.753-.468.528,2.01Zm3.227,12.227-2.724-10.318,1.749-.462,2.719,10.322Z" transform="translate(-108.173 -245.079)"/>
      <path id="Path_64" data-name="Path 64" class="cls-4" d="M280.97,388.782l1.758-.342a4.682,4.682,0,0,1-.508,3.206,4.338,4.338,0,0,1-2.478,1.91,4.555,4.555,0,0,1-3.795-.252,5.781,5.781,0,0,1-2.547-3.478,7.411,7.411,0,0,1-.407-3.045,3.992,3.992,0,0,1,1.04-2.393,5.151,5.151,0,0,1,2.216-1.422,4.426,4.426,0,0,1,2.976-.055,4.02,4.02,0,0,1,2.13,1.93l-1.588.8a2.877,2.877,0,0,0-1.347-1.257,2.282,2.282,0,0,0-1.633-.03,2.838,2.838,0,0,0-1.809,1.629,4.682,4.682,0,0,0,.166,3.211,4.782,4.782,0,0,0,1.764,2.7,2.665,2.665,0,0,0,2.347.252,2.55,2.55,0,0,0,1.487-1.181A3.256,3.256,0,0,0,280.97,388.782Z" transform="translate(-110.4 -245.588)"/>
      <path id="Path_65" data-name="Path 65" class="cls-4" d="M295.481,385.618a6.766,6.766,0,0,1-1.3,1.879,5.45,5.45,0,0,1-1.684,1.111,3.826,3.826,0,0,1-2.824.291,2.776,2.776,0,0,1-1.734-1.633,2.8,2.8,0,0,1-.247-1.457,2.853,2.853,0,0,1,.442-1.327,4.331,4.331,0,0,1,.955-1.06,11.328,11.328,0,0,1,1.367-.884,16.4,16.4,0,0,0,2.7-1.86c-.091-.23-.146-.377-.176-.432a2,2,0,0,0-1.085-1.226,2.975,2.975,0,0,0-2.136.257,3.137,3.137,0,0,0-1.548,1.161,2.73,2.73,0,0,0-.2,1.813l-1.719.478a4.376,4.376,0,0,1-.005-2,3.573,3.573,0,0,1,1.035-1.624,7.234,7.234,0,0,1,2.076-1.312,6.53,6.53,0,0,1,2.161-.588,2.944,2.944,0,0,1,1.478.241,2.823,2.823,0,0,1,1.005.9,9.908,9.908,0,0,1,.748,1.487l.96,2.216a24.786,24.786,0,0,0,1.377,2.875,3.78,3.78,0,0,0,.93.99l-1.734.759A3.945,3.945,0,0,1,295.481,385.618Zm-1.754-3.644a13.029,13.029,0,0,1-2.433,1.809,7.13,7.13,0,0,0-1.307.955,1.651,1.651,0,0,0-.412.824,1.554,1.554,0,0,0,.11.889,1.526,1.526,0,0,0,.98.879,2.313,2.313,0,0,0,1.663-.191,3.658,3.658,0,0,0,1.523-1.161,2.871,2.871,0,0,0,.6-1.624,4.564,4.564,0,0,0-.457-1.774Z" transform="translate(-113.95 -244.117)"/>
      <path id="Path_66" data-name="Path 66" class="cls-4" d="M304.084,382.948,299.1,373.51l1.437-.754.759,1.427a4.292,4.292,0,0,1,.317-1.859,2.023,2.023,0,0,1,.854-.865,3.6,3.6,0,0,1,1.919-.352l.231,1.775a2.6,2.6,0,0,0-1.357.271,1.786,1.786,0,0,0-.774.814,1.935,1.935,0,0,0-.131,1.191,7.016,7.016,0,0,0,.718,2.005l2.613,4.93Z" transform="translate(-117.417 -242.478)"/>
      <path id="Path_67" data-name="Path 67" class="cls-4" d="M317.735,371.082l1.709-.8a4.556,4.556,0,0,1-.035,3.02,5.555,5.555,0,0,1-6.006,3.157,5.6,5.6,0,0,1-3.317-2.689,5.866,5.866,0,0,1-1.056-4.277,4.68,4.68,0,0,1,2.252-3.176,4.578,4.578,0,0,1,3.729-.628,5.769,5.769,0,0,1,3.333,2.739c.055.091.146.231.252.417l-6.735,4.242a4.127,4.127,0,0,0,2.276,1.749,2.958,2.958,0,0,0,2.388-.4,2.756,2.756,0,0,0,1.156-1.352A3.46,3.46,0,0,0,317.735,371.082Zm-6.578.693L316.2,368.6a3.684,3.684,0,0,0-1.659-1.347,2.8,2.8,0,0,0-2.453.317,2.86,2.86,0,0,0-1.323,1.824A3.26,3.26,0,0,0,311.157,371.775Z" transform="translate(-120.062 -240.984)"/>
      <path id="Path_68" data-name="Path 68" class="cls-4" d="M328.231,365.005l1.162,1.126a6.712,6.712,0,0,1-1.006.94,3.2,3.2,0,0,1-1.412.658,1.77,1.77,0,0,1-1.106-.211,6.327,6.327,0,0,1-1.437-1.588l-3.639-4.946-1.065.789-.839-1.131,1.07-.789-1.568-2.131.809-1.939,2.211,3,1.462-1.081.829,1.136-1.463,1.076,3.694,5.03a3.032,3.032,0,0,0,.669.74.7.7,0,0,0,.457.1,1.1,1.1,0,0,0,.573-.261A4.963,4.963,0,0,0,328.231,365.005Z" transform="translate(-122.597 -238.366)"/>
      <path id="Path_69" data-name="Path 69" class="cls-4" d="M338.682,358.252,328.6,347.517l1.418-1.332,8.895,9.469,5.288-4.971,1.186,1.271Z" transform="translate(-125.338 -235.788)"/>
      <path id="Path_70" data-name="Path 70" class="cls-4" d="M340.794,338.55l-1.523-1.413,1.231-1.326,1.523,1.418Zm9.262,8.619-7.815-7.267,1.235-1.322,7.805,7.262Z" transform="translate(-128.203 -233.003)"/>
      <path id="Path_71" data-name="Path 71" class="cls-4" d="M356.049,339.86l-8.439-6.529.99-1.276,1.181.909a3.853,3.853,0,0,1-.181-1.824,3.7,3.7,0,0,1,.784-1.789,3.5,3.5,0,0,1,1.578-1.236,2.6,2.6,0,0,1,1.744-.01,3.829,3.829,0,0,1,.538-3.749,3.264,3.264,0,0,1,2.192-1.4,3.781,3.781,0,0,1,2.664.985l5.789,4.472-1.1,1.427-5.313-4.116a4.912,4.912,0,0,0-1.347-.808,1.474,1.474,0,0,0-1,.035,1.926,1.926,0,0,0-.895.679,2.524,2.524,0,0,0-.553,1.939,3.28,3.28,0,0,0,1.443,2.046l4.9,3.794-1.106,1.427-5.477-4.242a3.02,3.02,0,0,0-1.7-.748,1.655,1.655,0,0,0-1.362.779,2.564,2.564,0,0,0-.548,1.356,2.306,2.306,0,0,0,.357,1.463,6.566,6.566,0,0,0,1.588,1.593l4.377,3.388Z" transform="translate(-130.442 -229.548)"/>
      <path id="Path_72" data-name="Path 72" class="cls-4" d="M358.421,316.043l-1.749-1.116.965-1.527,1.753,1.116Zm10.675,6.79-9-5.724.975-1.528,9,5.724Z" transform="translate(-132.876 -226.986)"/>
      <path id="Path_73" data-name="Path 73" class="cls-4" d="M373.622,312.983l1.508.579a6.482,6.482,0,0,1-.543,1.262,3.053,3.053,0,0,1-1.03,1.166,1.755,1.755,0,0,1-1.091.261,6.822,6.822,0,0,1-1.96-.885l-5.312-3.065-.669,1.145-1.216-.7.663-1.151-2.292-1.312-.04-2.1,3.231,1.859.91-1.578,1.216.709-.909,1.573,5.4,3.116a2.983,2.983,0,0,0,.91.417.77.77,0,0,0,.457-.1,1.188,1.188,0,0,0,.427-.467A6.516,6.516,0,0,0,373.622,312.983Z" transform="translate(-134.21 -225.584)"/>
      <path id="Path_74" data-name="Path 74" class="cls-4" d="M378.535,300.779l1.02-1.588a4.585,4.585,0,0,1,1.573,2.583,5.567,5.567,0,0,1-3.437,5.86,5.732,5.732,0,0,1-4.247-.538,5.9,5.9,0,0,1-3.146-3.075,4.68,4.68,0,0,1,.236-3.886,4.572,4.572,0,0,1,2.835-2.513,5.819,5.819,0,0,1,4.282.583c.1.04.236.116.432.211l-3.483,7.157a4.127,4.127,0,0,0,2.859.291,2.989,2.989,0,0,0,1.814-1.608,2.725,2.725,0,0,0,.271-1.75A3.456,3.456,0,0,0,378.535,300.779Zm-5.227,4.061,2.6-5.357a3.573,3.573,0,0,0-2.116-.271,2.761,2.761,0,0,0-1.915,1.558,2.871,2.871,0,0,0-.17,2.252A3.36,3.36,0,0,0,373.308,304.841Z" transform="translate(-136.449 -222.698)"/>
      <path id="Path_75" data-name="Path 75" class="cls-4" d="M386.9,286.487l-1.257-.473a3.309,3.309,0,0,1,.437,3.347,4.2,4.2,0,0,1-1.478,1.96,4.717,4.717,0,0,1-2.418.865,6.919,6.919,0,0,1-2.925-.467,7.571,7.571,0,0,1-2.528-1.518,4.174,4.174,0,0,1-1.12-4.664,3.62,3.62,0,0,1,.98-1.472,3.752,3.752,0,0,1,1.417-.775l-4.94-1.849.628-1.679,13.791,5.152Zm-6.985,3.493a4.662,4.662,0,0,0,3.171.26,2.573,2.573,0,0,0,1.462-3.784,4.492,4.492,0,0,0-2.483-1.814,5.082,5.082,0,0,0-3.307-.337,2.614,2.614,0,0,0-1.684,1.589,2.507,2.507,0,0,0,.211,2.236A4.872,4.872,0,0,0,379.918,289.98Z" transform="translate(-137.279 -217.954)"/>
      <path id="Path_76" data-name="Path 76" class="cls-4" d="M386.91,268.588l.222-1.834a4.058,4.058,0,0,0,1.9-.222,3.308,3.308,0,0,0,1.422-1.216,5.6,5.6,0,0,0,.889-2.131,5.406,5.406,0,0,0,.075-1.99,2.663,2.663,0,0,0-.633-1.427,2.06,2.06,0,0,0-1.146-.663,1.914,1.914,0,0,0-1.266.14,3,3,0,0,0-1.126,1.126c-.227.352-.638,1.162-1.236,2.413a12.77,12.77,0,0,1-1.478,2.6,3.9,3.9,0,0,1-1.663,1.261,3.343,3.343,0,0,1-1.9.132,3.719,3.719,0,0,1-1.91-1.036,3.963,3.963,0,0,1-1.065-2.11,7,7,0,0,1,.061-2.755,7.425,7.425,0,0,1,1.1-2.724,4.2,4.2,0,0,1,1.915-1.563,4.473,4.473,0,0,1,2.423-.231l-.247,1.854a3.012,3.012,0,0,0-2.271.573,3.912,3.912,0,0,0-1.221,2.362,4.117,4.117,0,0,0,.105,2.653,1.966,1.966,0,0,0,1.367,1.115,1.665,1.665,0,0,0,1.4-.3,7.673,7.673,0,0,0,1.623-2.659,20.02,20.02,0,0,1,1.583-3A4.455,4.455,0,0,1,387.7,257.4a3.606,3.606,0,0,1,2.172-.181,4.041,4.041,0,0,1,2.03,1.116,4.459,4.459,0,0,1,1.191,2.222,6.688,6.688,0,0,1-.015,2.895,8.235,8.235,0,0,1-1.257,3.156,4.653,4.653,0,0,1-2.141,1.724A5.024,5.024,0,0,1,386.91,268.588Zm7-3.292-1.633-.874.271-1.317.99.543a2.1,2.1,0,0,1,.774-1.146,1.309,1.309,0,0,1,1.02-.231,1.677,1.677,0,0,1,1.156.975,3.448,3.448,0,0,1,.116,2.251,7.847,7.847,0,0,1-.407,1.392l-1.131-.347c.116-.412.186-.723.231-.914a2.441,2.441,0,0,0,.015-1.357.609.609,0,0,0-.422-.387.56.56,0,0,0-.337.05.911.911,0,0,0-.326.372A4.05,4.05,0,0,0,393.91,265.3Z" transform="translate(-138.572 -211.65)"/>
      <path id="Path_77" data-name="Path 77" class="cls-4" d="M382.38,251.524l-2.065-.266.23-1.794,2.066.266Zm12.544,1.618-10.59-1.356.236-1.8,10.584,1.357Z" transform="translate(-139.224 -209.818)"/>
      <path id="Path_78" data-name="Path 78" class="cls-4" d="M397.188,245.3l-10.634-.849.131-1.619,1.608.126a4.422,4.422,0,0,1-1.4-1.271,1.957,1.957,0,0,1-.266-1.186,3.509,3.509,0,0,1,.729-1.8l1.624.753a2.489,2.489,0,0,0-.5,1.293,1.718,1.718,0,0,0,.271,1.09,1.861,1.861,0,0,0,.935.744,6.964,6.964,0,0,0,2.075.473l5.569.452Z" transform="translate(-140.899 -206.929)"/>
      <path id="Path_79" data-name="Path 79" class="cls-4" d="M396.426,234.233l-14.731-.116.02-1.81,8.393.06-4.307-4.307.025-2.339,3.92,4.108,6.744-4.437-.015,2.229-5.483,3.483,1.211,1.287,4.237.03Z" transform="translate(-139.594 -203.355)"/>
      <path id="Path_80" data-name="Path 80" class="cls-4" d="M393.6,212.094l.081-1.882a4.586,4.586,0,0,1,2.663,1.419,5.551,5.551,0,0,1,.03,6.788,5.638,5.638,0,0,1-3.915,1.7,5.892,5.892,0,0,1-4.282-1.028,4.688,4.688,0,0,1-1.78-3.462,4.549,4.549,0,0,1,1.161-3.606,5.784,5.784,0,0,1,3.971-1.691c.106-.01.266-.021.483-.031l.658,7.928a4.086,4.086,0,0,0,2.6-1.216,2.966,2.966,0,0,0,.744-2.3,2.78,2.78,0,0,0-.658-1.648A3.483,3.483,0,0,0,393.6,212.094Zm-2.418,6.161-.5-5.935a3.605,3.605,0,0,0-1.954.844,2.769,2.769,0,0,0-.849,2.322,2.826,2.826,0,0,0,1,2.018A3.322,3.322,0,0,0,391.185,218.256Z" transform="translate(-140.852 -199.279)"/>
      <path id="Path_81" data-name="Path 81" class="cls-4" d="M392.541,200.752l1.538-.5a6.643,6.643,0,0,1,.372,1.325,3.13,3.13,0,0,1-.071,1.555,1.775,1.775,0,0,1-.693.882,6.469,6.469,0,0,1-2.076.55l-6.066.947.211,1.312-1.4.219-.2-1.312-2.608.407-1.353-1.611,3.684-.573-.282-1.8,1.387-.219.282,1.8,6.167-.963a3.088,3.088,0,0,0,.965-.249.726.726,0,0,0,.3-.362,1.192,1.192,0,0,0,.036-.631A6.136,6.136,0,0,0,392.541,200.752Z" transform="translate(-139.192 -196.603)"/>
      <path id="Path_82" data-name="Path 82" class="cls-4" d="M380.858,199.53l-2.035.41-.357-1.777,2.041-.407Zm12.4-2.493-10.458,2.1-.362-1.769,10.464-2.1Z" transform="translate(-138.727 -195.266)"/>
    </g>
  </g>
  <g id="Group_6" data-name="Group 6" transform="translate(87.412 221.048)">
    <path id="Path_83" data-name="Path 83" class="cls-3" d="M119.5,323.28h2.412V308.4H119.5v-.3h4.89l4.021,11.705h.045L132.48,308.1h4.8v.3h-2.412V323.28h2.412v.307h-7.006v-.307H132.7V308.529h-.04l-5.2,15.078-5.177-14.917h-.045v14.59h2.418v.307H119.5v-.306Z" transform="translate(-119.498 -303.775)"/>
    <path id="Path_84" data-name="Path 84" class="cls-3" d="M145.206,306.658h7v.3h-2.418v10.5a9.219,9.219,0,0,0,.231,2.211,3.575,3.575,0,0,0,.688,1.457,2.515,2.515,0,0,0,1.126.794,4.566,4.566,0,0,0,1.548.241,5.954,5.954,0,0,0,2.151-.362,3.6,3.6,0,0,0,1.608-1.276,4.589,4.589,0,0,0,.382-.558,3.286,3.286,0,0,0,.282-.663,5.338,5.338,0,0,0,.186-.92,10.636,10.636,0,0,0,.065-1.317V306.96h-2.418v-.3h5.156v.3h-2.413v10.549a6.519,6.519,0,0,1-.2,1.658,4.383,4.383,0,0,1-.809,1.558,4,4,0,0,1-1.629,1.257,6.649,6.649,0,0,1-2.758.483,5.672,5.672,0,0,1-4-1.282,5.152,5.152,0,0,1-1.377-3.936V306.961H145.2v-.3Zm5.131-2.94a.963.963,0,0,1,.291-.7.952.952,0,0,1,.709-.291.925.925,0,0,1,.7.291.945.945,0,0,1,.3.7.987.987,0,0,1-1,1,.978.978,0,0,1-1-1Zm4.046,0a.96.96,0,0,1,.291-.7.937.937,0,0,1,.709-.291.925.925,0,0,1,.7.291.946.946,0,0,1,.3.7,1.009,1.009,0,0,1-1.709.714A.975.975,0,0,1,154.384,303.718Zm40.291,0a.963.963,0,0,1,.291-.7.941.941,0,0,1,.7-.291.955.955,0,0,1,.714.291.976.976,0,0,1,.287.7.972.972,0,0,1-1,1,.978.978,0,0,1-.995-1Z" transform="translate(-126.4 -302.331)"/>
    <path id="Path_85" data-name="Path 85" class="cls-3" d="M168.038,323.256h2.407V308.38h-2.407v-.3h4.131c.171,0,.347-.005.518-.015s.352-.015.523-.025.352-.015.522-.015.347-.01.522-.01a16.641,16.641,0,0,1,2.262.14,3.885,3.885,0,0,1,1.829.814,3.385,3.385,0,0,1,1.07,1.326,3.537,3.537,0,0,1,.312,1.4,3.638,3.638,0,0,1-.116.824,2.648,2.648,0,0,1-.518,1.045,3.917,3.917,0,0,1-1.166.985,5.266,5.266,0,0,1-2.02.593v.045c.231.035.548.086.945.167a5.455,5.455,0,0,1,1.216.4,4.7,4.7,0,0,1,1.141.745,2.562,2.562,0,0,1,.739,1.216,4.888,4.888,0,0,1,.187.985c.035.372.065.754.09,1.146s.04.764.061,1.126a5.137,5.137,0,0,0,.121.915,3.489,3.489,0,0,0,.412,1.025,1,1,0,0,0,.914.452,1.659,1.659,0,0,0,.588-.106,1.5,1.5,0,0,0,.543-.347l.2.231a2,2,0,0,1-.246.192,2.347,2.347,0,0,1-.362.186,2.821,2.821,0,0,1-.533.136,4.294,4.294,0,0,1-.774.055,4.131,4.131,0,0,1-1.443-.211,2.174,2.174,0,0,1-.925-.644,2.641,2.641,0,0,1-.513-1.045,8.354,8.354,0,0,1-.226-1.452l-.151-1.97a4.182,4.182,0,0,0-.442-1.7,2.407,2.407,0,0,0-.809-.895,2.3,2.3,0,0,0-.97-.332,7.175,7.175,0,0,0-.869-.055h-2.171v7.85h2.407v.306h-7v-.306Zm4.589-8.156h2a3.648,3.648,0,0,0,1.111-.156,2.014,2.014,0,0,0,.859-.528,2.637,2.637,0,0,0,.558-1.035,6.057,6.057,0,0,0,.191-1.649,4.731,4.731,0,0,0-.291-1.819,2.328,2.328,0,0,0-1.809-1.487,6.211,6.211,0,0,0-1.141-.11c-.256,0-.522,0-.794.01s-.492.03-.678.056V315.1Z" transform="translate(-132.531 -303.751)"/>
    <path id="Path_86" data-name="Path 86" class="cls-3" d="M190.827,318.76h.241a8.772,8.772,0,0,0,.618,1.98,5.976,5.976,0,0,0,.844,1.327,3.58,3.58,0,0,0,.955.8,3.74,3.74,0,0,0,1.01.412,4.678,4.678,0,0,0,.979.161c.312.01.6.021.88.021a4.5,4.5,0,0,0,1.895-.352,3.433,3.433,0,0,0,1.171-.874,3.218,3.218,0,0,0,.609-1.156,4.255,4.255,0,0,0,.171-1.146,2.739,2.739,0,0,0-.282-1.3,2.923,2.923,0,0,0-.718-.925,3.8,3.8,0,0,0-.945-.624,6.815,6.815,0,0,0-.965-.372l-2.5-.764a6.191,6.191,0,0,1-2.664-1.437,3.179,3.179,0,0,1-.9-2.392,4.717,4.717,0,0,1,.342-1.814,4.343,4.343,0,0,1,2.493-2.393,5.118,5.118,0,0,1,1.925-.347,5.307,5.307,0,0,1,1.271.126,6.026,6.026,0,0,1,.884.291c.241.11.462.206.663.3a1.548,1.548,0,0,0,.6.125.662.662,0,0,0,.377-.075,1.27,1.27,0,0,0,.271-.377h.3v3.935h-.257a6.919,6.919,0,0,0-.442-1.513,4.765,4.765,0,0,0-.819-1.282,4.079,4.079,0,0,0-1.206-.895,3.8,3.8,0,0,0-1.644-.336,5.2,5.2,0,0,0-1.151.146,3.543,3.543,0,0,0-1.176.487,3.006,3.006,0,0,0-.9.909,2.715,2.715,0,0,0-.356,1.438,2.308,2.308,0,0,0,.287,1.186,2.674,2.674,0,0,0,.729.824,4.338,4.338,0,0,0,1,.568,11.375,11.375,0,0,0,1.116.4l2.628.824c.282.086.628.206,1.046.347a4.48,4.48,0,0,1,1.231.653,3.822,3.822,0,0,1,1.02,1.157,3.527,3.527,0,0,1,.427,1.829,5.016,5.016,0,0,1-.382,1.944,4.9,4.9,0,0,1-1.1,1.623,5.392,5.392,0,0,1-1.744,1.136,5.963,5.963,0,0,1-2.3.423c-.307,0-.573-.006-.809-.01s-.447-.031-.648-.051c-.206-.04-.407-.065-.609-.105a5.275,5.275,0,0,1-.673-.157c-.291-.09-.6-.191-.935-.306a2.74,2.74,0,0,0-.874-.176.574.574,0,0,0-.443.131,1.1,1.1,0,0,0-.206.351h-.331V318.76Zm2.418,4.684h.437l-1.5,1.558.045.045a1.431,1.431,0,0,1,.432-.217,2.1,2.1,0,0,1,.633-.091,2.315,2.315,0,0,1,.467.076,1.862,1.862,0,0,1,1.1.86,1.873,1.873,0,0,1,.222.955,1.845,1.845,0,0,1-.684,1.527,2.523,2.523,0,0,1-1.6.543,2.255,2.255,0,0,1-.935-.2,3.131,3.131,0,0,1-.739-.457l.176-.261a4.786,4.786,0,0,0,.583.361,1.842,1.842,0,0,0,.849.181.9.9,0,0,0,.568-.162,1.079,1.079,0,0,0,.337-.4,1.672,1.672,0,0,0,.161-.543,4.271,4.271,0,0,0,.045-.609,2.246,2.246,0,0,0-.206-1,.823.823,0,0,0-.814-.442,1.32,1.32,0,0,0-.523.1,1.993,1.993,0,0,0-.347.2l-.307-.332Z" transform="translate(-138.65 -303.633)"/>
    <path id="Path_87" data-name="Path 87" class="cls-3" d="M209.412,323.28h2.412V308.4h-2.412v-.3h7v.3H214V323.28h2.412v.307h-7Z" transform="translate(-143.64 -303.775)"/>
    <path id="Path_88" data-name="Path 88" class="cls-3" d="M220.85,323.256h2.418V308.38H220.85v-.3H224.9c.2,0,.4-.005.608-.015s.4-.015.6-.025.407-.015.614-.015.4-.01.608-.01c.432,0,.819.005,1.156.025s.669.035.96.071a6.11,6.11,0,0,1,.849.156c.271.06.553.146.859.241a8.027,8.027,0,0,1,2.3,1.171,6.7,6.7,0,0,1,1.588,1.685,7.138,7.138,0,0,1,.91,2.08,9.741,9.741,0,0,1,.3,2.372,8.85,8.85,0,0,1-.347,2.583,7.253,7.253,0,0,1-.96,2.015,7.045,7.045,0,0,1-1.423,1.533,7.858,7.858,0,0,1-1.749,1.025,5.979,5.979,0,0,1-.995.372,6.683,6.683,0,0,1-.95.191c-.332.05-.688.071-1.081.091s-.839.02-1.347.02c-.216,0-.448,0-.7-.01s-.493-.015-.74-.03-.487-.031-.729-.031-.467-.01-.684-.01h-3.7v-.306Zm4.589,0c.251.025.533.045.865.066s.679.02,1.07.02a12.65,12.65,0,0,0,1.467-.076,5.383,5.383,0,0,0,1.392-.326,4.219,4.219,0,0,0,1.246-.718,4.614,4.614,0,0,0,1.03-1.232,8.261,8.261,0,0,0,.97-2.4,12.856,12.856,0,0,0,.266-2.688,13.844,13.844,0,0,0-.326-3.116,6.113,6.113,0,0,0-1.076-2.393,4.892,4.892,0,0,0-1.99-1.538,7.656,7.656,0,0,0-3.066-.543c-.361,0-.688.01-.985.02s-.589.03-.865.045v14.877Z" transform="translate(-146.711 -303.751)"/>
    <path id="Path_89" data-name="Path 89" class="cls-3" d="M246.21,315.675a7.551,7.551,0,0,1,.683-3.216,8.955,8.955,0,0,1,1.764-2.563,8.088,8.088,0,0,1,2.423-1.709,6.412,6.412,0,0,1,2.7-.613,6.648,6.648,0,0,1,2.789.613A8.03,8.03,0,0,1,259,309.9a8.5,8.5,0,0,1,1.709,2.563,8,8,0,0,1,.638,3.216,7.885,7.885,0,0,1-.588,2.979,8.73,8.73,0,0,1-1.608,2.594,8.262,8.262,0,0,1-2.4,1.824,6.584,6.584,0,0,1-2.965.693,6.884,6.884,0,0,1-3.026-.674,7.522,7.522,0,0,1-2.4-1.8,8.115,8.115,0,0,1-1.573-2.583A8.257,8.257,0,0,1,246.21,315.675Zm2.5,0a19.534,19.534,0,0,0,.261,3.418,6.84,6.84,0,0,0,.874,2.432,3.815,3.815,0,0,0,1.563,1.457,6.034,6.034,0,0,0,4.73,0,3.818,3.818,0,0,0,1.578-1.457,7.05,7.05,0,0,0,.869-2.432,19.575,19.575,0,0,0,.257-3.418,21.818,21.818,0,0,0-.192-2.9,7.867,7.867,0,0,0-.753-2.5,4.4,4.4,0,0,0-1.538-1.75,5.382,5.382,0,0,0-5.156,0,4.512,4.512,0,0,0-1.548,1.75,7.9,7.9,0,0,0-.744,2.5A21.089,21.089,0,0,0,248.707,315.675Z" transform="translate(-153.521 -303.633)"/>
    <path id="Path_90" data-name="Path 90" class="cls-3" d="M286.364,316.455h-1.739v4.93h-.257a2.121,2.121,0,0,0-.392-.326,1.085,1.085,0,0,0-.482-.086,1.8,1.8,0,0,0-.794.2c-.266.14-.583.3-.934.472a8.921,8.921,0,0,1-1.252.467,6.42,6.42,0,0,1-1.739.206,6.9,6.9,0,0,1-2.739-.513,7.359,7.359,0,0,1-2.307-1.619,9.465,9.465,0,0,1-1.8-2.563,7.553,7.553,0,0,1-.713-3.327,8.015,8.015,0,0,1,.282-2.231,8.274,8.274,0,0,1,.683-1.729A7.79,7.79,0,0,1,273,309.1c.282-.332.518-.594.709-.779a8.242,8.242,0,0,1,2.241-1.588,6.548,6.548,0,0,1,2.865-.6,5.961,5.961,0,0,1,1.361.126,6.307,6.307,0,0,1,.925.291c.261.11.5.206.709.3a1.942,1.942,0,0,0,.7.125,1.184,1.184,0,0,0,.618-.115,1.582,1.582,0,0,0,.362-.337h.326v4.347h-.241a9.009,9.009,0,0,0-.337-1.326,4.968,4.968,0,0,0-.784-1.458,4.3,4.3,0,0,0-1.412-1.171,4.586,4.586,0,0,0-2.246-.482,4.519,4.519,0,0,0-2.624.688,4.684,4.684,0,0,0-1.547,1.81,8.117,8.117,0,0,0-.74,2.523,22.486,22.486,0,0,0-.181,2.854c0,.654.025,1.306.086,1.95a13.1,13.1,0,0,0,.3,1.854,7.281,7.281,0,0,0,.573,1.6,4.087,4.087,0,0,0,.96,1.266,3.742,3.742,0,0,0,1.342.814,6.01,6.01,0,0,0,1.81.231,4.244,4.244,0,0,0,1.347-.231,3.624,3.624,0,0,0,1.206-.684,3.458,3.458,0,0,0,.874-1.166,3.8,3.8,0,0,0,.336-1.659v-1.824h-2.81v-.307h6.634v.308Zm-10.177-14.268a2.967,2.967,0,0,0,.2.7,2.387,2.387,0,0,0,1.206,1.236,2.834,2.834,0,0,0,1.167.216,2.792,2.792,0,0,0,1.161-.216,2.336,2.336,0,0,0,1.205-1.236,2.771,2.771,0,0,0,.2-.7h.307a7.07,7.07,0,0,1-.157,1.206,2.94,2.94,0,0,1-.451,1.076,2.483,2.483,0,0,1-.87.784,2.858,2.858,0,0,1-1.391.307,2.893,2.893,0,0,1-1.4-.307,2.506,2.506,0,0,1-.865-.784,2.936,2.936,0,0,1-.457-1.076,6.587,6.587,0,0,1-.151-1.206Z" transform="translate(-160.234 -302.187)"/>
    <path id="Path_91" data-name="Path 91" class="cls-3" d="M293.465,323.28h2.418V308.4h-2.418v-.3h7.011v.3h-2.418V323.28h3.87a3.853,3.853,0,0,0,3-1.2,7.274,7.274,0,0,0,1.589-3.257h.236v4.764H293.465Z" transform="translate(-166.209 -303.775)"/>
    <path id="Path_92" data-name="Path 92" class="cls-3" d="M313.561,308.1h7.006v.3h-2.418v10.5a9,9,0,0,0,.23,2.211,3.76,3.76,0,0,0,.684,1.457,2.548,2.548,0,0,0,1.126.794,4.609,4.609,0,0,0,1.548.241,5.954,5.954,0,0,0,2.156-.362,3.577,3.577,0,0,0,1.608-1.276,4.623,4.623,0,0,0,.378-.558,3.245,3.245,0,0,0,.287-.663,4.928,4.928,0,0,0,.181-.919,9.616,9.616,0,0,0,.071-1.317V308.4H324v-.3h5.151v.3h-2.413v10.549a6.524,6.524,0,0,1-.2,1.658,4.422,4.422,0,0,1-.8,1.558,4.04,4.04,0,0,1-1.638,1.257,6.6,6.6,0,0,1-2.759.483,5.658,5.658,0,0,1-3.99-1.282,5.154,5.154,0,0,1-1.377-3.935V308.4H313.56v-.3Z" transform="translate(-171.605 -303.775)"/>
  </g>
  <path id="Path_93" data-name="Path 93" class="cls-5" d="M141.091,260.391c.362-1.146.679-2.307,1.1-3.428a8.459,8.459,0,0,1,3.08-4.152,8.054,8.054,0,0,1,4.363-1.418,16.347,16.347,0,0,1,6.835,1.317,46.535,46.535,0,0,1,11.212,6.458c1.965,1.487,3.864,3.061,5.8,4.6a37.832,37.832,0,0,0,5.93,3.96A16.653,16.653,0,0,0,185,269.582,12.258,12.258,0,0,0,193,268c.061-.04.106-.08.166-.126-.538-.236-1.065-.447-1.578-.688a14.281,14.281,0,0,1-4.448-3.116.624.624,0,0,0-.367-.14,7.355,7.355,0,0,1-5.2-2.613,8.417,8.417,0,0,1-2.162-4.338,6.034,6.034,0,0,1,3.05-6.408,8.014,8.014,0,0,1,3.232-1.005,13.731,13.731,0,0,1,8.418,1.879A10.5,10.5,0,0,1,199.249,259a9.892,9.892,0,0,1-1.744,7.764c-.076.1-.136.2-.211.3a.444.444,0,0,0-.015.061c.1.035.2.08.3.11a27.77,27.77,0,0,1,6.518,3.091.69.69,0,0,0,.784.066q3.445-1.433,6.9-2.845c.151-.06.3-.126.467-.2a1.144,1.144,0,0,0-.075-.14,13.789,13.789,0,0,1-2.719-6.387,9.367,9.367,0,0,1,1.055-6.327,8.822,8.822,0,0,1,4.02-3.453,16.28,16.28,0,0,1,4.941-1.458,9.842,9.842,0,0,1,5.412.658,6.9,6.9,0,0,1,3.267,3.227,9.719,9.719,0,0,1,1.151,3.467,5.463,5.463,0,0,1-1.222,4.151,7.711,7.711,0,0,1-5.478,2.87.525.525,0,0,0-.3.115,19.553,19.553,0,0,1-4.78,3.428c-.542.3-1.1.563-1.653.844-.035.02-.066.05-.181.125.684.261,1.292.518,1.93.729a12.067,12.067,0,0,0,6.353.181,21.3,21.3,0,0,0,7.087-3.161c2.171-1.433,4.2-3.056,6.237-4.669a74.632,74.632,0,0,1,7.931-5.75,37.932,37.932,0,0,1,7.553-3.658,14.685,14.685,0,0,1,4.584-.824,8.9,8.9,0,0,1,6.538,2.423,9.086,9.086,0,0,1,2.2,3.478,30.263,30.263,0,0,1,.879,2.975,2.235,2.235,0,0,1-.216,1.629.855.855,0,0,1-1.352.312,2.182,2.182,0,0,1-.518-.573,3.337,3.337,0,0,1-.462-2.473.072.072,0,0,0,0-.03c.2-.889.718-1.161,1.569-.814a.659.659,0,0,0-.031-.156,7.251,7.251,0,0,0-5.97-4.951,13.785,13.785,0,0,0-7.142.915,26.83,26.83,0,0,0-5.9,3.237c-2.1,1.457-4.187,2.919-6.227,4.453-1.669,1.262-3.257,2.613-4.89,3.919a37.466,37.466,0,0,1-6.639,4.423,16.053,16.053,0,0,1-5.76,1.749,12.555,12.555,0,0,1-9.177-2.508.386.386,0,0,0-.312-.075l-7.774,3.2-.2.1c.558.9,1.156,1.775,1.663,2.694a13.077,13.077,0,0,1,1.4,3.815A4.245,4.245,0,0,1,206.9,283.9a6.206,6.206,0,0,1-4.091.97,3.624,3.624,0,0,1-3.086-2.171,8.935,8.935,0,0,1,2.96-11.1c.056-.04.1-.08.191-.156-.488-.236-.94-.467-1.4-.688a36.9,36.9,0,0,0-5.473-1.98c-.2-.06-.271.071-.372.156a10.863,10.863,0,0,1-3.789,2.332,12.421,12.421,0,0,1-3.6.688,16.307,16.307,0,0,1-8.332-2.031,41.188,41.188,0,0,1-6.76-4.584c-1.915-1.527-3.794-3.116-5.774-4.558a54.234,54.234,0,0,0-9.911-5.956,21.388,21.388,0,0,0-5.583-1.719,9.673,9.673,0,0,0-9.8,5.017c-.031.06-.061.12-.091.186-.005.01.01.03.015.055a1.173,1.173,0,0,0,.106-.065.9.9,0,0,1,1.473.4,3.237,3.237,0,0,1-.719,3.328.9.9,0,0,1-1.548-.331,5.308,5.308,0,0,1-.221-.779C141.091,260.733,141.091,260.562,141.091,260.391Zm47.538,3.256c.624.357,1.176.684,1.749.985a26.591,26.591,0,0,0,4.448,1.714.406.406,0,0,0,.477-.126,11.243,11.243,0,0,0,2.151-2.984,9.006,9.006,0,0,0,1.061-4.373,5.029,5.029,0,0,0-1.81-3.79,12.848,12.848,0,0,0-3.825-2.276,13.11,13.11,0,0,0-6.935-.939,7.08,7.08,0,0,0-5.03,3.262,3.394,3.394,0,0,0,.372,4.4,6.282,6.282,0,0,0,2.84,1.81c.432.141.869.222,1.377.342-.08-.186-.121-.291-.161-.381a7.012,7.012,0,0,1-.6-3.377,2.735,2.735,0,0,1,2.659-2.473,2.2,2.2,0,0,1,2,1.166,7.211,7.211,0,0,1,1.1,3.9A3.084,3.084,0,0,1,188.629,263.647Zm35.271-2.5a.28.28,0,0,0,.066.02l.2-.061A7.371,7.371,0,0,0,228,257.727a3.587,3.587,0,0,0,.5-1.563,3.01,3.01,0,0,0-1.005-2.276,7.446,7.446,0,0,0-4.73-2.02,12.316,12.316,0,0,0-4.513.4,12.886,12.886,0,0,0-5.333,2.573,7.313,7.313,0,0,0-2.6,7.358,7.913,7.913,0,0,0,2.944,4.563.359.359,0,0,0,.3.015,42.56,42.56,0,0,0,6.227-3.372c.081-.051.162-.111.217-.151a11.092,11.092,0,0,1-.779-.98,7.108,7.108,0,0,1-1.045-4.251,3.464,3.464,0,0,1,.528-1.689,1.887,1.887,0,0,1,2.161-.869,3.49,3.49,0,0,1,2.407,2.131A5.984,5.984,0,0,1,223.9,261.145Zm-24.223,19.9a.905.905,0,0,0,.427.844,3.332,3.332,0,0,0,1.372.633,6.629,6.629,0,0,0,4.393-.794,4.7,4.7,0,0,0,1.949-1.844,2.844,2.844,0,0,0,.176-2.859,14.9,14.9,0,0,0-2.971-3.856.287.287,0,0,0-.261-.04,8.928,8.928,0,0,0-3.614,3.2A9.413,9.413,0,0,0,199.676,281.041Zm-14.168-21.555a3.157,3.157,0,0,0,.754,2.051.364.364,0,0,0,.246.09,3.537,3.537,0,0,0,1.568-.4,2.514,2.514,0,0,0,1.045-3.754,1.222,1.222,0,0,0-1.353-.518,3.083,3.083,0,0,0-1.87,1.412A1.989,1.989,0,0,0,185.508,259.486Zm33.482.653c-.1.4.14.633.417.838a3.034,3.034,0,0,0,1.522.6c1.176.116.945.191,1.619-.723a3.223,3.223,0,0,0,.2-.342,2.5,2.5,0,0,0,.271-1.669,1.843,1.843,0,0,0-2.236-1.508,1.931,1.931,0,0,0-1.6,1.629C219.126,259.35,219.06,259.742,218.99,260.14Z" transform="translate(-37.883 -66.984)"/>
</svg>
